<svg class="svg-icon" style="width: 20px; height: 20px; vertical-align: middle;overflow: hidden;" viewBox="0 0 1024 1024" version="1.1" xmlns="http://www.w3.org/2000/svg"><path d="M256 192.672 256 96c0-52.928-43.072-96-96-96S64 43.072 64 96l0 96.672C25.344 221.952 0 267.808 0 320s25.344 98.048 64 127.264L64 928c0 52.928 43.072 96 96 96s96-43.072 96-96L256 447.264c38.656-29.184 64-75.072 64-127.264S294.656 221.952 256 192.672zM128 96c0-17.696 14.304-32 32-32s32 14.304 32 32l0 67.2C181.664 161.12 170.976 160 160 160S138.336 161.12 128 163.2L128 96zM192 928c0 17.696-14.304 32-32 32s-32-14.304-32-32L128 476.736C138.336 478.88 149.024 480 160 480s21.664-1.12 32-3.264L192 928zM251.68 346.88c-0.512 1.696-0.96 3.36-1.568 5.056-3.04 8.448-6.944 16.448-12.096 23.552-0.128 0.192-0.32 0.32-0.448 0.512-5.568 7.616-12.192 14.368-19.712 20.064-0.128 0.128-0.224 0.192-0.32 0.256-7.712 5.824-16.32 10.496-25.568 13.76C181.952 413.696 171.296 416 160 416s-21.952-2.304-32-5.952c-9.248-3.264-17.856-7.936-25.568-13.76-0.096-0.064-0.192-0.128-0.32-0.256-7.52-5.696-14.144-12.448-19.712-20.064-0.128-0.192-0.32-0.32-0.448-0.512-5.152-7.136-9.056-15.136-12.096-23.552-0.608-1.696-1.056-3.36-1.568-5.056C65.76 338.304 64 329.376 64 320c0-9.44 1.76-18.368 4.32-26.944 0.512-1.696 0.96-3.36 1.568-4.992C72.896 279.616 76.8 271.616 81.984 264.448c0.128-0.192 0.32-0.32 0.448-0.512 5.568-7.552 12.192-14.368 19.712-20.064 0.128-0.064 0.224-0.192 0.32-0.256C110.144 237.888 118.752 233.184 128 229.888 138.048 226.304 148.704 224 160 224s21.952 2.304 32 5.888c9.248 3.328 17.856 8 25.568 13.76 0.096 0.064 0.192 0.192 0.32 0.256 7.52 5.696 14.144 12.512 19.712 20.064 0.128 0.192 0.32 0.32 0.448 0.512C243.2 271.616 247.104 279.616 250.112 288.064 250.72 289.696 251.2 291.36 251.68 293.056 254.24 301.632 256 310.56 256 320 256 329.376 254.24 338.304 251.68 346.88z"  /><path d="M960 192.672 960 96c0-52.928-43.072-96-96-96s-96 43.072-96 96l0 96.672C729.312 221.952 704 267.808 704 320s25.312 98.048 64 127.264L768 928c0 52.928 43.072 96 96 96s96-43.072 96-96L960 447.264c38.624-29.184 64-75.072 64-127.264S998.624 221.952 960 192.672zM832 96c0-17.696 14.304-32 32-32s32 14.304 32 32l0 67.2C885.632 161.12 874.944 160 864 160c-11.008 0-21.696 1.12-32 3.2L832 96zM896 928c0 17.696-14.304 32-32 32s-32-14.304-32-32L832 476.736C842.304 478.88 852.992 480 864 480c10.944 0 21.632-1.12 32-3.264L896 928zM955.68 346.88c-0.512 1.696-0.992 3.36-1.568 5.056-3.072 8.448-6.944 16.448-12.128 23.552-0.128 0.192-0.32 0.32-0.448 0.512-5.568 7.616-12.192 14.368-19.68 20.064-0.128 0.128-0.256 0.192-0.32 0.256-7.744 5.824-16.32 10.496-25.568 13.76C885.952 413.696 875.264 416 864 416c-11.328 0-21.952-2.304-32-5.952-9.248-3.264-17.888-7.936-25.568-13.76-0.128-0.064-0.192-0.128-0.32-0.256-7.552-5.696-14.176-12.448-19.744-20.064-0.128-0.192-0.32-0.32-0.448-0.512-5.12-7.136-9.056-15.136-12.064-23.552-0.64-1.696-1.056-3.36-1.568-5.056C769.76 338.304 768 329.376 768 320c0-9.44 1.76-18.368 4.32-26.944 0.512-1.696 0.928-3.36 1.568-4.992 3.008-8.448 6.944-16.448 12.064-23.616 0.128-0.192 0.32-0.32 0.448-0.512 5.568-7.552 12.192-14.368 19.744-20.064 0.128-0.064 0.192-0.192 0.32-0.256 7.68-5.76 16.32-10.432 25.568-13.76C842.048 226.304 852.672 224 864 224c11.264 0 21.952 2.304 32 5.888 9.248 3.328 17.824 8 25.568 13.76 0.064 0.064 0.192 0.192 0.32 0.256 7.488 5.696 14.112 12.512 19.68 20.064 0.128 0.192 0.32 0.32 0.448 0.512 5.184 7.2 9.056 15.2 12.128 23.616 0.576 1.632 1.056 3.328 1.568 4.992C958.24 301.632 960 310.56 960 320 960 329.376 958.24 338.304 955.68 346.88z"  /><path d="M608 576.672 608 96c0-52.928-43.072-96-96-96s-96 43.072-96 96l0 480.672c-38.656 29.248-64 75.136-64 127.328s25.344 98.048 64 127.264L416 928c0 52.928 43.072 96 96 96s96-43.072 96-96l0-96.736c38.624-29.184 64-75.072 64-127.264S646.624 605.952 608 576.672zM480 96c0-17.696 14.304-32 32-32 17.696 0 32 14.304 32 32l0 451.2c-10.368-2.048-21.056-3.2-32-3.2-10.976 0-21.664 1.12-32 3.2L480 96zM544 928c0 17.696-14.304 32-32 32-17.696 0-32-14.304-32-32l0-67.264C490.336 862.88 501.024 864 512 864c10.944 0 21.632-1.12 32-3.264L544 928zM603.68 730.88c-0.512 1.696-0.992 3.36-1.568 5.056-3.072 8.448-6.944 16.448-12.128 23.552-0.128 0.192-0.32 0.32-0.448 0.512-5.568 7.616-12.192 14.368-19.68 20.064-0.128 0.128-0.256 0.192-0.32 0.256-7.744 5.824-16.32 10.496-25.568 13.76C533.952 797.696 523.264 800 512 800c-11.296 0-21.952-2.304-32-5.952-9.248-3.264-17.856-7.936-25.568-13.76-0.096-0.064-0.192-0.128-0.32-0.256-7.52-5.696-14.144-12.448-19.712-20.064-0.128-0.192-0.32-0.32-0.448-0.512-5.152-7.136-9.056-15.136-12.096-23.552-0.608-1.696-1.056-3.36-1.568-5.056C417.76 722.304 416 713.376 416 704c0-9.44 1.76-18.368 4.32-26.944 0.512-1.696 0.96-3.36 1.568-4.992 3.04-8.448 6.944-16.448 12.096-23.616 0.128-0.192 0.32-0.32 0.448-0.512 5.568-7.552 12.192-14.368 19.712-20.064 0.128-0.064 0.224-0.192 0.32-0.256 7.712-5.76 16.32-10.432 25.568-13.76C490.048 610.304 500.704 608 512 608c11.264 0 21.952 2.304 32 5.888 9.248 3.328 17.824 8 25.568 13.76 0.064 0.064 0.192 0.192 0.32 0.256 7.488 5.696 14.112 12.512 19.68 20.064 0.128 0.192 0.32 0.32 0.448 0.512 5.184 7.2 9.056 15.2 12.128 23.616 0.576 1.632 1.056 3.328 1.568 4.992C606.24 685.632 608 694.56 608 704 608 713.376 606.24 722.304 603.68 730.88z"  /></svg>